<svg width="508" height="508" xmlns="http://www.w3.org/2000/svg">

 <g>
  <title>background</title>
  <rect fill="none" id="canvas_background" height="402" width="582" y="-1" x="-1"/>
 </g>
 <g>
  <title>Layer 1</title>
  <path stroke="null" id="svg_1" fill="#e8e8e8" d="m503.999984,502.99998l0,-499.99998l-498.999984,0l0,499.99998l498.999984,0z"/>
  <g id="svg_18"/>
  <g id="svg_19"/>
  <g id="svg_20"/>
  <g id="svg_21"/>
  <g id="svg_22"/>
  <g id="svg_23"/>
  <g id="svg_24"/>
  <g id="svg_25"/>
  <g id="svg_26"/>
  <g id="svg_27"/>
  <g id="svg_28"/>
  <g id="svg_29"/>
  <g id="svg_30"/>
  <g id="svg_31"/>
  <g id="svg_32"/>
  <g opacity="0.25" stroke="null" id="svg_33">
   <rect stroke="null" id="svg_2" fill="#eaeaea" height="109.039209" width="164.372539" y="190.33334" x="173.627451"/>
   <rect stroke="null" id="svg_3" fill="#f7f7f7" height="87.882348" width="141.588227" y="200.098045" x="185.019607"/>
   <path stroke="null" id="svg_4" fill="#8c8c8c" d="m240.352937,220.929417l-23.598038,27.50392l-13.182352,-14.321568l-19.529411,18.715685c-0.162745,0.162745 0,35.152939 0,35.152939l140.937246,0l0.32549,-33.688233l-21.319607,-21.319607l-25.713724,25.876469l-37.919606,-37.919606z"/>
   <path stroke="null" id="svg_5" fill="#afafaf" d="m239.213721,221.905887l-25.225489,23.598038l41.988233,42.150978l53.217644,0.162745l-69.980388,-65.911761z"/>
   <path stroke="null" id="svg_6" fill="#e5e5e5" d="m201.945096,234.437259l-17.90196,18.55294c-0.162745,0.162745 0,34.990194 0,34.990194l71.770584,-0.162745l-53.868624,-53.380389z"/>
   <circle stroke="null" id="svg_7" fill="#e8e8e8" r="8.299995" cy="220.603926" cx="275.668621"/>
   <path stroke="null" fill="#7f7f7f" id="svg_9" d="m336.372539,301l-162.745088,0c-0.976471,0 -1.627451,-0.65098 -1.627451,-1.627451l0,-107.411758c0,-0.976471 0.65098,-1.627451 1.627451,-1.627451l162.745088,0c0.976471,0 1.627451,0.65098 1.627451,1.627451l0,107.411758c0,0.976471 -0.65098,1.627451 -1.627451,1.627451zm-161.117637,-3.254902l159.490186,0l0,-104.156856l-159.490186,0l0,104.156856z"/>
   <path stroke="null" fill="#7f7f7f" id="svg_10" d="m326.607834,291.235295l-143.215678,0c-0.976471,0 -1.627451,-0.65098 -1.627451,-1.627451l0,-87.882348c0,-0.976471 0.65098,-1.627451 1.627451,-1.627451l118.803914,0c0.976471,0 1.627451,0.65098 1.627451,1.627451s-0.65098,1.627451 -1.627451,1.627451l-117.176463,0l0,84.627446l139.960776,0l0,-84.627446l-3.254902,0c-0.976471,0 -1.627451,-0.65098 -1.627451,-1.627451s0.65098,-1.627451 1.627451,-1.627451l4.882353,0c0.976471,0 1.627451,0.65098 1.627451,1.627451l0,87.882348c0,0.976471 -0.65098,1.627451 -1.627451,1.627451z"/>
   <path stroke="null" fill="#7f7f7f" id="svg_11" d="m184.205882,252.827454c-0.488235,0 -0.813725,-0.162745 -1.139216,-0.488235c-0.65098,-0.65098 -0.65098,-1.627451 0,-2.278431l17.739215,-17.739215c0.65098,-0.65098 1.627451,-0.65098 2.278431,0s0.65098,1.627451 0,2.278431l-17.739215,17.739215c-0.32549,0.32549 -0.65098,0.488235 -1.139216,0.488235z"/>
   <path stroke="null" fill="#7f7f7f" id="svg_12" d="m231.564702,264.87059c-0.488235,0 -0.813725,-0.162745 -1.139216,-0.488235l-29.782351,-29.782351c-0.65098,-0.65098 -0.65098,-1.627451 0,-2.278431s1.627451,-0.65098 2.278431,0l29.782351,29.782351c0.65098,0.65098 0.65098,1.627451 0,2.278431c-0.32549,0.32549 -0.65098,0.488235 -1.139216,0.488235z"/>
   <path stroke="null" fill="#7f7f7f" id="svg_13" d="m219.03333,243.876474c-0.488235,0 -0.813725,-0.162745 -1.139216,-0.488235c-0.65098,-0.65098 -0.65098,-1.627451 0,-2.278431l21.319607,-21.319607c0.65098,-0.65098 1.627451,-0.65098 2.278431,0s0.65098,1.627451 0,2.278431l-21.319607,21.319607c-0.32549,0.32549 -0.65098,0.488235 -1.139216,0.488235z"/>
   <path stroke="null" fill="#7f7f7f" id="svg_14" d="m282.66666,255.919611c-0.488235,0 -0.813725,-0.162745 -1.139216,-0.488235c-0.65098,-0.65098 -0.65098,-1.627451 0,-2.278431l21.319607,-21.319607c0.65098,-0.65098 1.627451,-0.65098 2.278431,0s0.65098,1.627451 0,2.278431l-21.319607,21.319607c-0.32549,0.32549 -0.813725,0.488235 -1.139216,0.488235z"/>
   <path stroke="null" fill="#7f7f7f" id="svg_15" d="m289.664699,271.868629c-0.488235,0 -0.813725,-0.162745 -1.139216,-0.488235l-49.311762,-49.149017c-0.65098,-0.65098 -0.65098,-1.627451 0,-2.278431s1.627451,-0.65098 2.278431,0l49.311762,49.149017c0.65098,0.65098 0.65098,1.627451 0,2.278431c-0.32549,0.32549 -0.813725,0.488235 -1.139216,0.488235z"/>
   <path stroke="null" fill="#7f7f7f" id="svg_16" d="m326.445089,257.058826c-0.488235,0 -0.813725,-0.162745 -1.139216,-0.488235l-22.458822,-22.458822c-0.65098,-0.65098 -0.65098,-1.627451 0,-2.278431s1.627451,-0.65098 2.278431,0l22.458822,22.458822c0.65098,0.65098 0.65098,1.627451 0,2.278431c-0.32549,0.32549 -0.813725,0.488235 -1.139216,0.488235z"/>
   <path stroke="null" fill="#7f7f7f" id="svg_17" d="m276.319602,230.043142c-5.370588,0 -9.764705,-4.394117 -9.764705,-9.764705s4.394117,-9.764705 9.764705,-9.764705c1.952941,0 3.905882,0.65098 5.533333,1.790196c0.813725,0.488235 0.976471,1.464706 0.32549,2.278431c-0.488235,0.813725 -1.464706,0.976471 -2.278431,0.32549c-1.139216,-0.813725 -2.441176,-1.139216 -3.743137,-1.139216c-3.580392,0 -6.509804,2.929412 -6.509804,6.509804s2.929412,6.509804 6.509804,6.509804s6.509804,-2.929412 6.509804,-6.509804c0,-0.976471 0.65098,-1.627451 1.627451,-1.627451s1.627451,0.65098 1.627451,1.627451c0.162745,5.370588 -4.231372,9.764705 -9.60196,9.764705z"/>
  </g>
 </g>
</svg>