<svg width="508.00000000000006" height="508.00000000000006" xmlns="http://www.w3.org/2000/svg">

 <g>
  <title>background</title>
  <rect fill="none" id="canvas_background" height="402" width="582" y="-1" x="-1"/>
 </g>
 <g>
  <title>Layer 1</title>
  <path stroke="null" id="svg_1" fill="#e8e8e8" d="m503.999984,502.99998l0,-499.99998l-498.999984,0l0,499.99998l498.999984,0z"/>
  <g id="svg_18"/>
  <g id="svg_19"/>
  <g id="svg_20"/>
  <g id="svg_21"/>
  <g id="svg_22"/>
  <g id="svg_23"/>
  <g id="svg_24"/>
  <g id="svg_25"/>
  <g id="svg_26"/>
  <g id="svg_27"/>
  <g id="svg_28"/>
  <g id="svg_29"/>
  <g id="svg_30"/>
  <g id="svg_31"/>
  <g id="svg_32"/>
  <g opacity="0.25" stroke="null" id="svg_75">
   <path stroke="null" id="svg_38" fill="#eaeaea" d="m175.640999,194.166027l0,99.923316c0,2.498083 2.103649,5.259122 4.601732,5.259122l153.829316,0c2.498083,0 4.601732,-2.761039 4.601732,-5.259122l0,-99.265926c0,-2.892517 -2.366605,-4.601732 -5.259122,-4.601732l-153.171925,0c-2.498083,0 -4.601732,1.446259 -4.601732,3.944341z"/>
   <rect stroke="null" transform="matrix(0.3286951188532078,0,0,0.3286951188532078,-471.4172877708679,-471.7492792659135) " id="svg_39" fill="#f7f7f7" height="280" width="448" y="2037.936096" x="1992.566764"/>
   <path stroke="null" id="svg_40" fill="#8c8c8c" d="m240.065242,220.85607l-24.060483,24.191961l-11.43859,-11.044156l-20.510575,19.458751c-0.131478,0.131478 0,36.813853 0,36.813853l146.729501,0l0,-31.554731l-24.849351,-24.849351l-25.375263,25.243785l-40.495239,-38.260112z"/>
   <path stroke="null" id="svg_41" fill="#afafaf" d="m240.065242,221.119026l-24.060483,24.323439l45.491404,44.702536l51.802351,0l-73.233272,-69.025975z"/>
   <path stroke="null" id="svg_42" fill="#e5e5e5" d="m204.566169,234.135353l-20.510575,19.327273c-0.131478,0.131478 0,36.550897 0,36.550897l78.09796,0l-57.587385,-55.87817z"/>
   <circle stroke="null" transform="matrix(0.3286951188532078,0,0,0.3286951188532078,-471.4172877708679,-471.7492792659135) " id="svg_43" fill="#e8e8e8" r="26.4" cy="2103.536096" cx="2280.966764"/>
   <g stroke="null" transform="matrix(0.3286951188532078,0,0,0.3286951188532078,-471.4172877708679,-471.7492792659135) " id="svg_44">
    <path stroke="null" id="svg_45" fill="#e8e8e8" d="m2297.766772,2249.536104c-20.8,-20.4 -48.4,-31.6 -77.6,-31.6c-0.4,0 -0.4,0 -0.8,0c-21.2,4 -41.6,6.4 -59.2,17.6l0.4,-2c1.2,-6.4 -3.2,-12.8 -9.6,-14c-6.4,-1.2 -12.8,3.2 -14,9.6l-5.6,30.8c-1.2,6.4 3.2,12.8 9.6,14l30.8,5.6c0.8,0 1.6,0.4 2,0.4c5.6,0 10.8,-4 11.6,-10c1.2,-6.4 -3.2,-12.8 -9.6,-14l-2,-0.4c13.6,-8.4 29.2,-9.2 45.6,-13.2c0.4,0 0.4,0 0.8,0c22.8,0 44.4,8.8 60.4,24.8c22,21.6 30.8,53.2 22.8,83.2c-1.6,6.4 2.4,12.8 8.8,14.8c1.2,0.4 2,0.4 3.2,0.4c5.2,0 10.4,-3.6 11.6,-8.8c10,-38.8 -1.2,-79.6 -29.2,-107.2z"/>
    <path stroke="null" id="svg_46" fill="#e8e8e8" d="m2298.166772,2382.336104l-30.8,-5.6c-6.4,-1.2 -12.8,3.2 -14,9.6s6,16 12.8,17.2l0.8,-0.8c-13.6,8.8 -29.2,15.2 -46,15.2c-0.4,0 -0.4,0 -0.8,0c-22.8,0 -44.4,-10.4 -60.4,-26.4c-22,-21.6 -30.8,-54.8 -22.8,-84.8c1.6,-6.4 -2,-13.6 -8.4,-15.2s-12.8,2 -14.8,8.4c-10.4,38.4 0.8,81.2 29.2,108.8c20.8,20.4 48.4,33.2 77.6,33.2c0.4,0 0.4,0 0.8,0c20.8,0 40.4,-7.6 57.6,-18.4l0,0c-1.2,6.4 3.2,12.4 9.6,13.6c0.8,0 1.6,0 2,0c5.6,0 10.8,-4 11.6,-10l5.6,-30.8c0.4,-3.2 0,-6.4 -2,-9.2s-4.4,-4.4 -7.6,-4.8z"/>
   </g>
   <path fill="#7f7f7f" stroke="null" id="svg_47" d="m289.632466,306.842713c-0.394434,0 -0.920346,0 -1.31478,-0.131478c-2.761039,-0.788868 -4.470254,-3.549907 -3.812863,-6.442424c2.366605,-9.334941 -0.394434,-19.327273 -7.231293,-26.032653c-5.127644,-4.996166 -11.833024,-7.757205 -18.932839,-7.757205l-0.131478,-1.31478l0,1.31478c-4.864688,0.262956 -8.546073,1.051824 -11.964502,2.892517c1.577737,1.183302 2.498083,3.155473 2.103649,5.259122c-0.525912,2.761039 -3.155473,4.73321 -6.179468,4.207298l-10.12381,-1.840693c-1.446259,-0.262956 -2.629561,-1.051824 -3.418429,-2.235127c-0.788868,-1.183302 -1.051824,-2.498083 -0.788868,-3.944341l1.840693,-9.992332c0.525912,-2.761039 3.286951,-4.73321 6.179468,-4.207298c2.235127,0.394434 3.944341,2.235127 4.207298,4.470254c5.653556,-3.286951 11.307112,-4.73321 18.012493,-4.601732c10.12381,0 19.590229,3.812863 26.558566,10.7812c9.466419,9.334941 13.279283,23.140136 9.992332,36.024985c-0.394434,2.103649 -2.498083,3.549907 -4.996166,3.549907l0,0zm-31.423253,-42.993322c0.131478,0 0.131478,0 0,0c8.020161,0 15.382932,3.023995 21.036488,8.546073c7.494249,7.362771 10.518244,18.406927 7.888683,28.530736c-0.394434,1.446259 0.525912,2.892517 1.840693,3.155473c0.262956,0 0.394434,0.131478 0.65739,0.131478c0.920346,0 2.235127,-0.525912 2.498083,-1.840693c3.023995,-11.964502 -0.525912,-24.849351 -9.334941,-33.526902l0,0c-6.573902,-6.442424 -15.382932,-9.992332 -24.717873,-9.992332c-0.131478,0 -0.262956,0 -0.394434,0c-6.70538,0 -12.490415,1.709215 -18.275449,5.522078c-0.394434,0.262956 -1.051824,0.262956 -1.446259,0s-0.65739,-0.788868 -0.525912,-1.31478l0.131478,-0.920346c0.262956,-1.446259 -0.65739,-2.892517 -2.103649,-3.155473c-1.446259,-0.262956 -2.761039,0.65739 -3.023995,2.103649l-1.840693,9.992332c-0.131478,0.65739 0,1.446259 0.394434,1.972171s1.051824,0.920346 1.709215,1.051824l10.12381,1.840693c1.446259,0.262956 2.761039,-0.65739 3.023995,-2.103649s-0.65739,-2.761039 -2.103649,-3.023995l-0.65739,-0.131478c-0.525912,-0.131478 -0.920346,-0.525912 -1.051824,-1.051824s0.131478,-1.051824 0.525912,-1.31478c4.601732,-2.892517 9.071985,-4.207298 15.645888,-4.601732c0,0.131478 0,0.131478 0,0.131478z"/>
   <path fill="#7f7f7f" stroke="null" id="svg_48" d="m259.918427,331.429108c-0.131478,0 -0.262956,0 -0.394434,0c-10.12381,0 -19.590229,-3.812863 -26.558566,-10.7812c-9.466419,-9.334941 -13.279283,-23.140136 -9.992332,-36.024985c0.525912,-2.235127 2.629561,-3.812863 5.127644,-3.812863c0.394434,0 0.920346,0 1.31478,0.131478c2.761039,0.788868 4.470254,3.549907 3.812863,6.442424c-2.366605,9.334941 0.394434,19.327273 7.231293,26.032653c5.127644,4.996166 11.833024,7.757205 18.932839,7.757205l0.131478,1.31478l0,-1.31478c4.864688,-0.262956 8.546073,-1.051824 11.964502,-2.892517c-1.577737,-1.183302 -2.498083,-3.155473 -2.103649,-5.259122c0.525912,-2.761039 3.286951,-4.73321 6.179468,-4.207298l10.12381,1.840693c1.446259,0.262956 2.629561,1.051824 3.418429,2.235127c0.788868,1.183302 1.051824,2.498083 0.788868,3.944341l-1.840693,9.992332c-0.525912,2.761039 -3.286951,4.73321 -6.179468,4.207298c-2.235127,-0.394434 -3.944341,-2.235127 -4.207298,-4.470254c-5.785034,3.418429 -11.307112,4.864688 -17.749536,4.864688zm-0.394434,-2.629561c6.968337,0.131478 12.621893,-1.709215 18.669883,-5.522078c0.394434,-0.262956 1.051824,-0.262956 1.446259,0s0.65739,0.788868 0.525912,1.31478l-0.131478,0.920346c-0.262956,1.446259 0.65739,2.892517 2.103649,3.155473c1.446259,0.262956 2.761039,-0.65739 3.023995,-2.103649l1.840693,-9.992332c0.131478,-0.65739 0,-1.446259 -0.394434,-1.972171s-1.051824,-0.920346 -1.709215,-1.051824l-10.12381,-1.840693c-1.446259,-0.262956 -2.761039,0.65739 -3.023995,2.103649s0.65739,2.761039 2.103649,3.023995l0.65739,0.131478c0.525912,0.131478 0.920346,0.525912 1.051824,1.051824s-0.131478,1.051824 -0.525912,1.31478c-4.601732,2.892517 -9.071985,4.207298 -15.645888,4.601732c-0.131478,0 -0.131478,0 -0.262956,0c-7.888683,0 -15.251454,-3.023995 -20.90501,-8.546073c-7.494249,-7.362771 -10.518244,-18.406927 -7.888683,-28.530736c0.394434,-1.446259 -0.525912,-2.892517 -1.840693,-3.155473c-0.262956,0 -0.394434,0 -0.65739,-0.131478c-0.920346,0 -2.235127,0.525912 -2.498083,1.840693c-3.023995,11.964502 0.525912,24.849351 9.334941,33.526902l0,0c6.573902,6.310946 15.382932,9.860854 24.849351,9.860854l0,0z"/>
   <path fill="#7f7f7f" stroke="null" id="svg_49" d="m332.757265,301.978026l-38.128634,0c-0.788868,0 -1.31478,-0.525912 -1.31478,-1.31478s0.525912,-1.31478 1.31478,-1.31478l38.128634,0c2.235127,0 3.286951,-1.051824 3.286951,-3.286951l0,-100.580706c0,-2.235127 -1.709215,-3.944341 -3.944341,-3.944341l-151.857145,0c-2.235127,0 -3.286951,1.051824 -3.286951,3.286951l0,101.238097c0,2.235127 1.051824,3.286951 3.286951,3.286951l42.072975,0c0.788868,0 1.31478,0.525912 1.31478,1.31478s-0.525912,1.31478 -1.31478,1.31478l-42.072975,0c-3.549907,0 -5.916512,-2.366605 -5.916512,-5.916512l0,-101.238097c0,-3.549907 2.366605,-5.916512 5.916512,-5.916512l151.857145,0c3.681385,0 6.573902,2.892517 6.573902,6.573902l0,100.580706c0,3.549907 -2.366605,5.916512 -5.916512,5.916512z"/>
   <path fill="#7f7f7f" stroke="null" id="svg_50" d="m221.658315,292.774562l-38.128634,0c-0.788868,0 -1.31478,-0.525912 -1.31478,-1.31478l0,-92.034633c0,-0.788868 0.525912,-1.31478 1.31478,-1.31478l127.533706,0c0.788868,0 1.31478,0.525912 1.31478,1.31478s-0.525912,1.31478 -1.31478,1.31478l-126.218926,0l0,89.405072l36.813853,0c0.788868,0 1.31478,0.525912 1.31478,1.31478s-0.525912,1.31478 -1.31478,1.31478z"/>
   <path fill="#7f7f7f" stroke="null" id="svg_51" d="m329.470314,292.774562l-34.184292,0c-0.788868,0 -1.31478,-0.525912 -1.31478,-1.31478s0.525912,-1.31478 1.31478,-1.31478l32.869512,0l0,-89.405072l-5.259122,0c-0.788868,0 -1.31478,-0.525912 -1.31478,-1.31478s0.525912,-1.31478 1.31478,-1.31478l6.573902,0c0.788868,0 1.31478,0.525912 1.31478,1.31478l0,92.034633c0,0.788868 -0.525912,1.31478 -1.31478,1.31478z"/>
   <path fill="#7f7f7f" stroke="null" id="svg_52" d="m183.529682,256.092187c-0.394434,0 -0.65739,-0.131478 -0.920346,-0.394434c-0.525912,-0.525912 -0.525912,-1.31478 0,-1.840693l21.036488,-21.167966c0.525912,-0.525912 1.31478,-0.525912 1.840693,0s0.525912,1.31478 0,1.840693l-21.036488,21.167966c-0.262956,0.262956 -0.525912,0.394434 -0.920346,0.394434z"/>
   <path fill="#7f7f7f" stroke="null" id="svg_53" d="m230.861779,261.088353c-0.394434,0 -0.65739,-0.131478 -0.920346,-0.394434l-26.29561,-26.164131c-0.525912,-0.525912 -0.525912,-1.31478 0,-1.840693s1.31478,-0.525912 1.840693,0l26.29561,26.164131c0.525912,0.525912 0.525912,1.31478 0,1.840693c-0.262956,0.262956 -0.525912,0.394434 -0.920346,0.394434z"/>
   <path fill="#7f7f7f" stroke="null" id="svg_54" d="m220.343535,242.944382c-0.394434,0 -0.65739,-0.131478 -0.920346,-0.394434c-0.525912,-0.525912 -0.525912,-1.31478 0,-1.840693l21.036488,-21.036488c0.525912,-0.525912 1.31478,-0.525912 1.840693,0s0.525912,1.31478 0,1.840693l-21.036488,21.036488c-0.262956,0.262956 -0.525912,0.394434 -0.920346,0.394434z"/>
   <path fill="#7f7f7f" stroke="null" id="svg_55" d="m284.767778,256.092187c-0.394434,0 -0.65739,-0.131478 -0.920346,-0.394434c-0.525912,-0.525912 -0.525912,-1.31478 0,-1.840693l21.167966,-21.167966c0.525912,-0.525912 1.31478,-0.525912 1.840693,0s0.525912,1.31478 0,1.840693l-21.167966,21.167966c-0.262956,0.262956 -0.525912,0.394434 -0.920346,0.394434z"/>
   <path fill="#7f7f7f" stroke="null" id="svg_56" d="m291.473159,272.001031c-0.394434,0 -0.65739,-0.131478 -0.920346,-0.394434l-50.093136,-50.093136c-0.525912,-0.525912 -0.525912,-1.31478 0,-1.840693s1.31478,-0.525912 1.840693,0l50.093136,50.093136c0.525912,0.525912 0.525912,1.31478 0,1.840693c-0.262956,0.262956 -0.525912,0.394434 -0.920346,0.394434z"/>
   <path fill="#7f7f7f" stroke="null" id="svg_57" d="m329.07588,259.116182c-0.394434,0 -0.65739,-0.131478 -0.920346,-0.394434l-23.008658,-24.323439c-0.525912,-0.525912 -0.525912,-1.31478 0,-1.840693s1.31478,-0.525912 1.840693,0l23.008658,24.323439c0.525912,0.525912 0.525912,1.31478 0,1.840693c-0.262956,0.394434 -0.65739,0.394434 -0.920346,0.394434z"/>
   <path fill="#7f7f7f" stroke="null" id="svg_58" d="m278.325354,229.796577c-5.127644,0 -9.203463,-4.207298 -9.203463,-9.203463c0,-5.127644 4.207298,-9.203463 9.203463,-9.203463c1.972171,0 3.812863,0.525912 5.3906,1.709215c0.65739,0.394434 0.788868,1.183302 0.262956,1.840693c-0.394434,0.65739 -1.183302,0.788868 -1.840693,0.262956c-1.183302,-0.788868 -2.498083,-1.183302 -3.812863,-1.183302c-3.681385,0 -6.573902,3.023995 -6.573902,6.573902c0,3.681385 3.023995,6.573902 6.573902,6.573902c3.681385,0 6.573902,-3.023995 6.573902,-6.573902c0,-0.788868 0.525912,-1.31478 1.31478,-1.31478s1.31478,0.525912 1.31478,1.31478c0,5.127644 -4.207298,9.203463 -9.203463,9.203463z"/>
   <path fill="#7f7f7f" stroke="null" id="svg_59" d="m255.71113,285.148835c-0.394434,0 -0.65739,-0.131478 -0.920346,-0.394434l-6.573902,-6.310946c-0.525912,-0.525912 -0.525912,-1.31478 0,-1.840693s1.31478,-0.525912 1.840693,0l6.573902,6.310946c0.525912,0.525912 0.525912,1.31478 0,1.840693c-0.262956,0.262956 -0.525912,0.394434 -0.920346,0.394434z"/>
   <g stroke="null" transform="matrix(0.3286951188532078,0,0,0.3286951188532078,-471.4172877708679,-471.7492792659135) " id="svg_60"/>
   <g stroke="null" transform="matrix(0.3286951188532078,0,0,0.3286951188532078,-471.4172877708679,-471.7492792659135) " id="svg_61"/>
   <g stroke="null" transform="matrix(0.3286951188532078,0,0,0.3286951188532078,-471.4172877708679,-471.7492792659135) " id="svg_62"/>
   <g stroke="null" transform="matrix(0.3286951188532078,0,0,0.3286951188532078,-471.4172877708679,-471.7492792659135) " id="svg_63"/>
   <g stroke="null" transform="matrix(0.3286951188532078,0,0,0.3286951188532078,-471.4172877708679,-471.7492792659135) " id="svg_64"/>
   <g stroke="null" transform="matrix(0.3286951188532078,0,0,0.3286951188532078,-471.4172877708679,-471.7492792659135) " id="svg_65"/>
   <g stroke="null" transform="matrix(0.3286951188532078,0,0,0.3286951188532078,-471.4172877708679,-471.7492792659135) " id="svg_66"/>
   <g stroke="null" transform="matrix(0.3286951188532078,0,0,0.3286951188532078,-471.4172877708679,-471.7492792659135) " id="svg_67"/>
   <g stroke="null" transform="matrix(0.3286951188532078,0,0,0.3286951188532078,-471.4172877708679,-471.7492792659135) " id="svg_68"/>
   <g stroke="null" transform="matrix(0.3286951188532078,0,0,0.3286951188532078,-471.4172877708679,-471.7492792659135) " id="svg_69"/>
   <g stroke="null" transform="matrix(0.3286951188532078,0,0,0.3286951188532078,-471.4172877708679,-471.7492792659135) " id="svg_70"/>
   <g stroke="null" transform="matrix(0.3286951188532078,0,0,0.3286951188532078,-471.4172877708679,-471.7492792659135) " id="svg_71"/>
   <g stroke="null" transform="matrix(0.3286951188532078,0,0,0.3286951188532078,-471.4172877708679,-471.7492792659135) " id="svg_72"/>
   <g stroke="null" transform="matrix(0.3286951188532078,0,0,0.3286951188532078,-471.4172877708679,-471.7492792659135) " id="svg_73"/>
   <g stroke="null" transform="matrix(0.3286951188532078,0,0,0.3286951188532078,-471.4172877708679,-471.7492792659135) " id="svg_74"/>
  </g>
 </g>
</svg>